<svg width="959" height="554.5" xmlns="http://www.w3.org/2000/svg" data-name="Layer 1">
 <title>share_link</title>

 <g>
  <title>Layer 1</title>
  <polygon id="svg_2" fill="#a0616a" points="771.744 381.531 778.744 418.531 793.744 422.531 789.744 378.531 771.744 381.531"/>
  <polygon id="svg_3" fill="#a0616a" points="855.744 381.531 862.744 418.531 877.744 422.531 873.744 378.531 855.744 381.531"/>
  <path id="svg_4" fill="#2f2e41" d="m787.74409,411.5315s-16,-1 -16,4s-8,22 -8,22s-6,20 10,18s26,-20 26,-20l-4,-19l-8,-5z"/>
  <path id="svg_5" fill="#2f2e41" d="m867.883,413.37508s-10.67275,-6.861 -9.91041,-2.287s1.52468,16.77146 6.86106,17.5338s21.34549,5.33638 22.10783,6.86106s19.05848,7.62339 19.05848,-2.287s-11.43509,-17.5338 -11.43509,-17.5338l-12.95976,-9.91041s-8.38573,-0.76234 -9.91041,4.574s-3.8117,3.04935 -3.8117,3.04935z"/>
  <path id="svg_6" fill="#a0616a" d="m766.5,171s-17,-25 -23,-17s15,23 15,23l8,-6z"/>
  <path id="svg_7" fill="#575a89" d="m772.5,195c-1,-1 -19,-18 -19,-18l13,-9l15,15l-9,12z"/>
  <path id="svg_8" fill="#575a89" d="m775,117.5s-13,1 -12,12s9.5,47.5 9.5,47.5l5,10s18.5,-57.5 -2.5,-69.5z"/>
  <path id="svg_9" fill="#2f2e41" d="m776,82.5l3.6,12l45.1,0l1.30005,-13l3.9,13l5.79995,0l1.30005,-13l3.9,13l6.1,0l-5.73535,-13.81683a111.387,111.387 0 0 1 -6.04688,-20.44233a38.51318,38.51318 0 0 0 -37.71782,-30.74084l0,0q-0.79743,0 -1.58691,0.0321c-25.27832,1.02491 -41.46729,27.4964 -31.76819,50.86237l5.8551,14.10553l4.80005,0l1.19995,-12z"/>
  <path id="svg_10" fill="#2f2e41" d="m775.5,187s-31,26 -22,61s12,145 12,145l31,-3l0,-138l43,82l7,59l35,-6l-16,-72l-30.76873,-91.778l-3.23127,-26.47791l-56,-9.74409z"/>
  <circle id="svg_11" fill="#a0616a" r="21" cy="62.5" cx="797"/>
  <path id="svg_12" fill="#a0616a" d="m784.5,77s9,33 4,37s35,-13 35,-13s-17,-19 -15,-27l-24,3z"/>
  <path id="svg_13" fill="#575a89" d="m821.5,94s-16.01139,13.77211 -31.5057,14.88605c0,0 -20.4943,11.11395 -19.4943,12.11395s4,15 4,15s5,7.72118 5,24c0,2 -7,30 -7,30l59,8s16,-52 17,-70s7,-37 -2,-38s-25,4 -25,4z"/>
  <path id="svg_14" fill="#575a89" d="m844.5,94s7,-6 11,8s20,58 16,67s-28,49 -28,49l-12,-8l24,-45l-14,-32l3,-39z"/>
  <path id="svg_15" fill="#a0616a" d="m836.5,209s-31,19 -21,23s27,-17 27,-17l-6,-6z"/>
  <polygon id="svg_16" fill="#2f2e41" points="774 38.5 774 59.5 782 59.5 785 50.5 785.75 59.5 808 59.5 811 50.5 811.75 59.5 821 59.5 821 38.5 774 38.5"/>
  <path id="svg_17" opacity="0.2" d="m774,137.5s-2,20 1,24s-1,-24 -1,-24z"/>
  <path id="svg_19" fill="#9b45d9" d="m575.21,334.61l-123.02,123.02a100.28643,100.28643 0 0 1 -141.82,0c-1.66,-1.66 -3.26,-3.37 -4.78,-5.13a96.84877,96.84877 0 0 1 -6.99,-9a98.77835,98.77835 0 0 1 -15.84,-38q-0.855,-4.455 -1.29,-9q-0.465,-4.84506 -0.47,-9.78a100.75451,100.75451 0 0 1 3.72,-27.22q1.27506,-4.575 2.99,-9a100.066,100.066 0 0 1 22.66,-34.69l53.67,-53.67a14.99773,14.99773 0 0 1 21.21,21.21l-53.67,53.67a70.86742,70.86742 0 0 0 -10.57,13.48a69.78657,69.78657 0 0 0 -10.01,36.22a72.046,72.046 0 0 0 0.67,9.78a68.42389,68.42389 0 0 0 1.86005,9a70.2693,70.2693 0 0 0 117.44995,30.92l30.92,-30.92l55,-55l37.1,-37.1a70.40164,70.40164 0 0 0 7.87,-90.02a15.00468,15.00468 0 0 1 24.61,-17.17a100.457,100.457 0 0 1 -11.27,128.4z"/>
  <path id="svg_20" fill="#9b45d9" d="m768,100.28q0,1.11 -0.03,2.22a99.821,99.821 0 0 1 -8.33,38a96.82561,96.82561 0 0 1 -4.5,9a100.56063,100.56063 0 0 1 -16.51,21.69l-53.67,53.67a14.99775,14.99775 0 0 1 -21.21,-21.21l53.67,-53.67c0.16,-0.16 0.32,-0.32 0.47,-0.48a69.874,69.874 0 0 0 20.07,-47c0.03,-0.74 0.04,-1.48 0.04,-2.22q0,-3.42 -0.32,-6.78a70.2081,70.2081 0 0 0 -20.26,-42.92c-1.07,-1.07 -2.16,-2.1 -3.29,-3.08a70.28966,70.28966 0 0 0 -92.82,0c-1.13,0.98 -2.22,2.01 -3.29,3.08l-123.02,123.02a70.3745,70.3745 0 0 0 0,99.4a14.99773,14.99773 0 0 1 -21.21,21.21a100.39527,100.39527 0 0 1 0,-141.81995l123.02,-123.02005a100.38657,100.38657 0 0 1 156.21,18.13a96.266,96.266 0 0 1 4.97,9a99.43233,99.43233 0 0 1 9.78,37q0.225,3.375 0.23,6.78z"/>
  <path id="svg_25" fill="#9b45d9" d="m683,98.5a20.24728,20.24728 0 0 1 -0.4,4a20.005,20.005 0 0 1 -39.2,0a20.17518,20.17518 0 0 1 0.23,-9a20,20 0 0 1 39.37,5z"/>
  <path id="svg_26" fill="#9b45d9" d="m388,401.5a20.24728,20.24728 0 0 1 -0.4,4a20.005,20.005 0 0 1 -39.2,0a20.17518,20.17518 0 0 1 0.23,-9a20,20 0 0 1 39.37,5z"/>
  <path id="svg_42" fill="#2f2e41" d="m315.594,169.73439c-7.6454,-12.91835 -22.77119,-13.5204 -22.77119,-13.5204s-14.73923,-1.88484 -24.19435,17.79c-8.81293,18.33853 -20.97589,36.04476 -1.95814,40.33768l3.43516,-10.69175l2.12738,11.48773a74.41154,74.41154 0 0 0 8.137,0.13907c20.36647,-0.65755 39.76246,0.19238 39.13794,-7.116c-0.83024,-9.71542 3.44257,-25.9963 -3.9138,-38.42633z"/>
  <polygon id="svg_43" fill="#fbbebe" points="260.5 455 261.5 481 279.5 481 278.5 453 260.5 455"/>
  <path id="svg_44" fill="#2f2e41" d="m309.5,271l-1.82,6.05l-23.58,78.33l-2.6,8.62l2,92l-25,3s-0.73,-9.66 -1.8,-23.92c-2.15,-28.24 -5.67,-74.55 -7.71,-99.75c-0.75,-9.32 -1.29,-15.75 -1.49,-17.33c-1,-8 12,-48 12,-48l26,-2l24,3z"/>
  <path id="svg_45" fill="#2f2e41" d="m266.5,478s-7,-8 -8,-2s-13,29 -13,29s-35,23 -5,25c0,0 15,-2 20,-10c0,0 8,-5 10,-5s14,-4 12,-10s-1,-28 -1,-28l-15,1z"/>
  <polygon id="svg_46" fill="#fbbebe" points="265.5 431 274.5 448 288.5 441 279.5 421 265.5 431"/>
  <path id="svg_47" opacity="0.2" d="m258.5,382s-7.46,-16.3 -9.5,-41.5c14.48,-16.18 32,-34 32,-34l21,-1l6.5,-0.5c1.52,15.2 -11.34,34.78 -24.4,50.38a279.192,279.192 0 0 1 -25.6,26.62z"/>
  <path id="svg_48" fill="#2f2e41" d="m284.5,306s-64,56 -55,79s34,51 34,51l19.31461,-11.528l-18.31461,-42.472s7.67809,-6.80887 17.024,-16.89766c15.20875,-16.41759 34.83415,-41.52086 32.976,-60.10234l-1,-34l-17,2l-12,33z"/>
  <path id="svg_49" fill="#2f2e41" d="m278.5,444s-7,0 -6,6s3,16 3,16s-8,47 11,36s14,-40 14,-40s7,-18 -2,-20s-12,-4 -13,-3s-7,5 -7,5z"/>
  <circle id="svg_50" fill="#fbbebe" r="18" cy="181" cx="292.5"/>
  <path id="svg_51" fill="#fbbebe" d="m285.5,188s8,21 5,22s-9,6 -9,6l10,9l26,-14s-12,-16 -11,-23l-21,0z"/>
  <path id="svg_52" fill="#cfcce0" d="m317.5,207s-20.92467,10.315 -28.46234,3.65748c0,0 -12.53766,-0.65748 -14.53766,6.34252s2,13 -3,15s-8.5,7.5 -5.5,16.5s2.5,10.5 -1.5,13.5s-8,9 -8,11s-4,2 -2,4s-2,0 2,2s15,-16 23,-7s33,24 35,15s8,-31 8,-31s21,-39 15,-43s-20,-6 -20,-6z"/>
  <path id="svg_53" fill="#fbbebe" d="m314.5,277s-11,-2 -14,5s-20,23 -9,24s19,-17 19,-17l11,-2l-7,-10z"/>
  <path id="svg_54" fill="#cfcce0" d="m325.5,213l13.07813,0.72835s5.92187,6.27165 6.92187,12.27165s20,51 8,56s-38,8 -38,8l-3,-14l17,-6l-12,-25l8,-32z"/>
  <polygon id="svg_55" opacity="0.2" points="266 382.5 282.449 423.623 263 382.5 280 364.5 266 382.5"/>
  <polygon id="svg_56" opacity="0.2" points="256.143 427.766 263 436.5 258 436.5 256.143 427.766"/>
  <circle id="svg_57" fill="#2f2e41" r="10.93678" cy="156.27942" cx="294.67402"/>
  <path id="svg_58" fill="#2f2e41" d="m282.586,153.40133a10.9372,10.9372 0 0 1 9.78554,-10.8753a11.04689,11.04689 0 0 0 -1.15124,-0.06148a10.93678,10.93678 0 1 0 0,21.87355a11.04689,11.04689 0 0 0 1.15124,-0.06148a10.93719,10.93719 0 0 1 -9.78554,-10.87529z"/>
  <polygon id="svg_59" fill="#2f2e41" points="312.214 168.489 297.27 160.662 276.634 163.864 272.364 182.721 282.993 182.312 285.962 175.384 285.962 182.198 290.866 182.009 293.712 170.98 295.491 182.721 312.925 182.365 312.214 168.489"/>
 </g>
</svg>