<svg width="460" height="546" xmlns="http://www.w3.org/2000/svg" data-name="Layer 1">

 <g>
  <title>Layer 1</title>
  <ellipse id="svg_3" transform="rotate(-28.6632 -459.834 123.715)" fill="#2f2e41" ry="30.77493" rx="29.80735" cy="505.70912" cx="69.50577"/>
  <circle id="svg_4" fill="#ffb8b8" r="24.56103" cy="212.9009" cx="187.86501"/>
  <path id="svg_5" fill="#ccc" d="m174.69578,250.46984l-3.15847,8.934l4.64576,26.88906l19.14613,15.90819l15.20429,-23.51033l-7.32058,-22.24331l-5.49044,-6.19434l0,0a4.05934,4.05934 0 0 0 -3.9614,-4.44959l-11.99069,-0.23359a7.35185,7.35185 0 0 0 -7.0746,4.89991z"/>
  <polygon id="svg_6" fill="#ffb8b8" points="225.576 533.697 237.836 533.695 239.529 486.407 225.572 486.409 225.576 533.697"/>
  <path id="svg_7" transform="rotate(179.995 825.968 1252.22)" fill="#2f2e41" d="m1390.39228,1959.41104l38.53073,0a0,0 0 0 1 0,0l0,14.88687a0,0 0 0 1 0,0l-23.64388,0a14.88686,14.88686 0 0 1 -14.88686,-14.88686l0,0a0,0 0 0 1 0.00001,-0.00001z"/>
  <polygon id="svg_8" fill="#ffb8b8" points="139.693 533.697 151.953 533.695 157.783 486.407 139.689 486.409 139.693 533.697"/>
  <path id="svg_9" transform="rotate(179.995 654.202 1252.23)" fill="#2f2e41" d="m1132.74329,1959.41885l38.53073,0a0,0 0 0 1 0,0l0,14.88687a0,0 0 0 1 0,0l-23.64387,0a14.88686,14.88686 0 0 1 -14.88686,-14.88686l0,0a0,0 0 0 1 0,-0.00001z"/>
  <path id="svg_10" fill="#ffb8b8" d="m247.48884,201.60671a10.05576,10.05576 0 0 1 2.352,15.2389l10.14,20.62094l-11.02837,9.2184l-13.91065,-29.32188a10.11027,10.11027 0 0 1 12.447,-15.75636l0.00002,0z"/>
  <path id="svg_11" fill="#2f2e41" d="m174.39274,363.07959a147.80631,147.80631 0 0 1 -17.86657,-1.31787a7.14334,7.14334 0 0 1 -6.00281,-8.95215l13.27136,-49.14014l-10.68774,-29.98486a13.47763,13.47763 0 0 1 7.4414,-16.92578l14.68067,-6.20654l4.41223,27.313l10.512,13.2544a3.418,3.418 0 0 0 5.66284,-0.459l7.98267,-14.30859l-6.52051,-26.292l9.72168,1.1499a16.87745,16.87745 0 0 1 13.91187,11.23486a45.06241,45.06241 0 0 1 0.74658,26.92286l-4.02857,14.312l7.074,45.72168a9.31429,9.31429 0 0 1 -8.218,10.69092a93.62523,93.62523 0 0 1 -13.61938,0.56982c-4.12683,-0.17578 -7.02515,-2.69238 -8.382,-7.27734a1.27571,1.27571 0 0 0 -2.45667,-0.0127q-0.56342,1.99731 -1.2395,4.44824c-1.09293,3.96632 -7.93729,5.25929 -16.39555,5.25929z"/>
  <path id="svg_12" fill="#2f2e41" d="m217.04899,274.37939a9.215,9.215 0 0 1 -3.552,-0.70166a8.73631,8.73631 0 0 1 -5.2185,-6.33789a10.56939,10.56939 0 0 1 5.448,-11.34716l28.64672,-15.55368l-1.56689,-6.19531a4.97825,4.97825 0 0 1 1.92505,-5.1333l7.38672,-5.4873a4.73638,4.73638 0 0 1 3.99951,-0.84473a4.18421,4.18421 0 0 1 2.77954,2.3042l3.83764,8.28564c3.03638,6.55518 0.44043,14.62891 -6.03857,18.7793l-32.12964,20.582a10.257,10.257 0 0 1 -5.51758,1.64989z"/>
  <path id="svg_13" fill="#2f2e41" d="m156.69548,511.71436q-0.14959,0 -0.30078,-0.00977l-15.60889,-0.627a4.5,4.5 0 0 1 -4.19556,-4.95655l15.84204,-152.41104l41.57593,-15.11865l24.48364,13.855l26.7854,147.67965a4.501,4.501 0 0 1 -3.3518,5.19482l-0.0647,0.01611l-15.97851,-0.39257a4.51369,4.51369 0 0 1 -5.29493,-3.02735l-34.029,-119.41357a1.50012,1.50012 0 0 0 -2.88818,0.13379l-22.59026,125.5532a4.48555,4.48555 0 0 1 -4.3844,3.52393z"/>
  <path id="svg_14" fill="#2f2e41" d="m166.41349,197.39554c-3.90718,5.11519 -0.93367,13.8219 5.2862,15.47851s13.13017,-4.41761 12.28492,-10.79858c-1.34232,6.69479 4.38735,13.70087 11.18939,14.296s13.4156,-4.73417 14.90378,-11.398s-1.83307,-13.94459 -7.487,-17.77284s-13.22518,-4.32554 -19.62249,-1.93883a37.85094,37.85094 0 0 0 -16.5548,12.13374z"/>
  <path id="svg_15" fill="#2f2e41" d="m196.02111,175.5619c-3.63814,-7.635 -7.3762,-15.41637 -13.2564,-21.49525s-14.38646,-10.26566 -22.72161,-8.83219s-15.513,9.84589 -13.66686,18.09945c0.93775,4.19239 -2.652,8.34643 -6.78986,9.50123s-8.54774,0.07488 -12.63836,-1.2375s-8.23462,-2.87949 -12.52664,-2.69473c-8.60616,0.37048 -15.80147,8.51665 -16.10381,17.12547s5.55378,16.8033 13.41066,20.335s17.255,2.74036 25.00476,-1.02063s13.94634,-10.245 18.47757,-17.571c6.69561,-10.82541 23.52127,-13.49544 33.23928,-5.27469a5.262,5.262 0 0 0 7.11656,-0.57067c1.71872,-2.00522 1.46957,-5.38846 0.45471,-6.36449z"/>
  <path id="svg_19" fill="#ffb8b8" d="m175.57093,319.52392a10.05576,10.05576 0 0 0 -14.35721,-5.62372l-17.97412,-13.50211l-4.33879,12.35143l18.57547,15.47934a10.11028,10.11028 0 0 0 18.09463,-8.70494l0.00002,0z"/>
  <path id="svg_20" fill="#2f2e41" d="m149.79912,323.78271a4.18,4.18 0 0 1 -2.236,-0.64892l-7.71887,-4.87842c-6.10742,-3.85937 -8.30676,-12.0498 -5.11584,-19.05176l15.82336,-34.72119a9.83991,9.83991 0 0 1 7.10425,-5.71679a8.73279,8.73279 0 0 1 7.82239,2.49267a10.56936,10.56936 0 0 1 1.57959,12.48779l-15.626,28.60743l4.67761,4.35351a4.97958,4.97958 0 0 1 1.168,5.35693l-3.228,8.61719a4.74291,4.74291 0 0 1 -2.90161,2.87989a4.23135,4.23135 0 0 1 -1.34888,0.22167z"/>
  <path fill="#9b45d9" id="svg_22" d="m300.92907,169.03309l-29.72666,15.28704c-1.55321,0.89801 -3.6673,0.75182 -5.28522,-0.35503c-1.59635,-1.10685 -2.39453,-3.02817 -2.26509,-4.90773l5.8461,-32.47452l-23.9647,-23.0141c-1.39357,-1.31569 -1.88758,-3.29966 -1.27492,-5.11656c0.6105,-1.79602 2.22195,-3.11171 4.1613,-3.3832l33.05096,-4.74065l14.79861,-29.50483c0.88447,-1.72731 2.67497,-2.82351 4.65962,-2.82351c1.98465,0 3.79673,1.09641 4.65962,2.82351l14.79861,29.50483l33.07037,4.74065c1.94151,0.27149 3.53786,1.58718 4.16346,3.3832c0.60403,1.8169 0.10786,3.80088 -1.27277,5.11656l-23.98843,23.0141l5.67352,32.47452c0.32358,1.87955 -0.47459,3.80088 -2.09252,4.90773c-1.59635,1.10685 -3.90459,1.25304 -5.4578,0.35503l-29.55409,-15.28704zm-13.24541,-55.781c-0.99233,1.98397 -2.93384,3.36231 -5.19893,3.69646l-29.64253,4.23944l21.53134,20.63333c1.57478,1.52453 2.30824,3.71734 1.94151,5.86839l-5.09107,29.13309l26.44767,-13.67898c2.04937,-1.06508 4.48704,-1.06508 6.51484,0l26.44767,13.67898l-5.0695,-29.13309c-0.3883,-2.15105 0.34516,-4.34386 1.94151,-5.86839l21.52918,-20.63333l-29.66195,-4.23944c-2.43767,-0.33414 -4.37918,-1.71248 -5.19893,-3.69646l-13.24541,-26.41401l-13.24541,26.41401z"/>
 </g>
</svg>