<?xml version="1.0" encoding="UTF-8"?>
<svg width="256px" height="256px" viewBox="0 0 256 256" version="1.1" xmlns="http://www.w3.org/2000/svg" xmlns:xlink="http://www.w3.org/1999/xlink">
    <style>
        rect {
            fill: #590099;
        }
        path {
            fill: #FFFFFF;
        }
        @media (prefers-color-scheme: dark) {
            rect {
                fill: #fff;
            }
            path {
                fill: #590099;
            }
        }
    </style>
    <title>FileRun icon 256x256</title>
    <g id="FileRun-icon-256x256" stroke="none" stroke-width="1" fill="none" fill-rule="evenodd">
        <rect fill="#590099" x="0" y="0" width="256" height="256"></rect>
        <path d="M151.385542,109.313253 L143.36603,131.353356 L135.858205,131.353356 C127.849928,131.353356 118.995985,137.846676 116.081099,145.857079 L116.081099,145.857079 L102.641368,182.79218 L117.247462,182.79218 L77.2489689,212.124498 L58.5983936,182.79218 L73.2565754,182.79218 L89.4232671,138.363608 C95.2612107,122.319304 112.996671,109.313253 129.036717,109.313253 L129.036717,109.313253 L151.385542,109.313253 Z M175.429665,43 L201.506024,72.3872215 L154.005412,101.773421 L159.360708,87.0808323 L122.491873,87.0808323 C106.281663,87.0808323 88.358005,100.201551 82.4581725,116.387314 L82.4581725,116.387314 L77.0731935,131.160643 L55,131.160643 L63.0636503,109.039998 C73.4006399,80.6819523 104.803634,57.6936108 133.203487,57.6936108 L133.203487,57.6936108 L170.073346,57.6936108 L175.429665,43 Z" id="FileRun-icon" fill="#FFFFFF"></path>
    </g>
</svg>